<mxfile host="app.diagrams.net" modified="2020-11-17T06:01:32.836Z" agent="5.0 (Windows NT 10.0; Win64; x64) AppleWebKit/537.36 (KHTML, like Gecko) Chrome/86.0.4240.198 Safari/537.36" etag="rT8WN8IoTtoQTocuWwN0" version="13.9.9" type="github">
  <diagram id="h0yh4uh9Ou2qqzZrw4VW" name="Page-1">
    <mxGraphModel dx="1038" dy="491" grid="1" gridSize="10" guides="1" tooltips="1" connect="1" arrows="1" fold="1" page="1" pageScale="1" pageWidth="850" pageHeight="1100" math="0" shadow="0">
      <root>
        <mxCell id="0" />
        <mxCell id="1" parent="0" />
        <mxCell id="CvozXVyJyX2lD8ZnYhm1-18" style="edgeStyle=orthogonalEdgeStyle;rounded=0;orthogonalLoop=1;jettySize=auto;html=1;entryX=0;entryY=0.5;entryDx=0;entryDy=0;" parent="1" source="fXs1r2CifXFu1rM4M8Fj-1" target="CvozXVyJyX2lD8ZnYhm1-1" edge="1">
          <mxGeometry relative="1" as="geometry" />
        </mxCell>
        <mxCell id="fXs1r2CifXFu1rM4M8Fj-1" value="" style="ellipse;whiteSpace=wrap;html=1;aspect=fixed;fillColor=#000000;" parent="1" vertex="1">
          <mxGeometry x="221.25" y="31.25" width="40" height="40" as="geometry" />
        </mxCell>
        <mxCell id="OsMlclKe9sGLii8gvVtk-3" value="Yes" style="edgeStyle=orthogonalEdgeStyle;rounded=0;orthogonalLoop=1;jettySize=auto;html=1;entryX=0.5;entryY=0;entryDx=0;entryDy=0;" parent="1" edge="1">
          <mxGeometry relative="1" as="geometry">
            <mxPoint x="665" y="450" as="targetPoint" />
          </mxGeometry>
        </mxCell>
        <mxCell id="U1gIK-Ml1kVYt0ZC6_mx-13" style="edgeStyle=orthogonalEdgeStyle;rounded=0;orthogonalLoop=1;jettySize=auto;html=1;entryX=0.5;entryY=0;entryDx=0;entryDy=0;exitX=0.5;exitY=1;exitDx=0;exitDy=0;" parent="1" edge="1">
          <mxGeometry relative="1" as="geometry">
            <Array as="points" />
            <mxPoint x="220" y="420" as="sourcePoint" />
          </mxGeometry>
        </mxCell>
        <mxCell id="CvozXVyJyX2lD8ZnYhm1-9" style="edgeStyle=orthogonalEdgeStyle;rounded=0;orthogonalLoop=1;jettySize=auto;html=1;exitX=1;exitY=0.25;exitDx=0;exitDy=0;entryX=0.5;entryY=0;entryDx=0;entryDy=0;" parent="1" source="CvozXVyJyX2lD8ZnYhm1-1" target="CvozXVyJyX2lD8ZnYhm1-8" edge="1">
          <mxGeometry relative="1" as="geometry" />
        </mxCell>
        <mxCell id="CvozXVyJyX2lD8ZnYhm1-14" style="edgeStyle=orthogonalEdgeStyle;rounded=0;orthogonalLoop=1;jettySize=auto;html=1;exitX=1;exitY=0.75;exitDx=0;exitDy=0;entryX=0.5;entryY=0;entryDx=0;entryDy=0;" parent="1" source="CvozXVyJyX2lD8ZnYhm1-1" target="CvozXVyJyX2lD8ZnYhm1-5" edge="1">
          <mxGeometry relative="1" as="geometry" />
        </mxCell>
        <mxCell id="CvozXVyJyX2lD8ZnYhm1-1" value="" style="rounded=1;whiteSpace=wrap;html=1;fillColor=#000000;rotation=90;" parent="1" vertex="1">
          <mxGeometry x="231.25" y="31.25" width="20" height="187.5" as="geometry" />
        </mxCell>
        <mxCell id="CvozXVyJyX2lD8ZnYhm1-20" style="edgeStyle=orthogonalEdgeStyle;rounded=0;orthogonalLoop=1;jettySize=auto;html=1;" parent="1" source="CvozXVyJyX2lD8ZnYhm1-3" target="CvozXVyJyX2lD8ZnYhm1-19" edge="1">
          <mxGeometry relative="1" as="geometry" />
        </mxCell>
        <mxCell id="CvozXVyJyX2lD8ZnYhm1-3" value="" style="rounded=1;whiteSpace=wrap;html=1;fillColor=#000000;rotation=90;" parent="1" vertex="1">
          <mxGeometry x="232.13" y="180" width="20" height="187.5" as="geometry" />
        </mxCell>
        <mxCell id="CvozXVyJyX2lD8ZnYhm1-15" style="edgeStyle=orthogonalEdgeStyle;rounded=0;orthogonalLoop=1;jettySize=auto;html=1;exitX=0.5;exitY=1;exitDx=0;exitDy=0;entryX=0;entryY=0.75;entryDx=0;entryDy=0;" parent="1" source="CvozXVyJyX2lD8ZnYhm1-5" target="CvozXVyJyX2lD8ZnYhm1-3" edge="1">
          <mxGeometry relative="1" as="geometry" />
        </mxCell>
        <mxCell id="CvozXVyJyX2lD8ZnYhm1-5" value="Get latest quotes for positions" style="rounded=1;whiteSpace=wrap;html=1;fillColor=#FFFFFF;" parent="1" vertex="1">
          <mxGeometry x="154.88" y="174" width="80" height="45" as="geometry" />
        </mxCell>
        <mxCell id="CvozXVyJyX2lD8ZnYhm1-10" style="edgeStyle=orthogonalEdgeStyle;rounded=0;orthogonalLoop=1;jettySize=auto;html=1;exitX=0.5;exitY=1;exitDx=0;exitDy=0;entryX=0;entryY=0.25;entryDx=0;entryDy=0;" parent="1" source="CvozXVyJyX2lD8ZnYhm1-8" target="CvozXVyJyX2lD8ZnYhm1-3" edge="1">
          <mxGeometry relative="1" as="geometry" />
        </mxCell>
        <mxCell id="CvozXVyJyX2lD8ZnYhm1-8" value="" style="shape=image;html=1;verticalAlign=top;verticalLabelPosition=bottom;labelBackgroundColor=#ffffff;imageAspect=0;aspect=fixed;image=https://cdn4.iconfinder.com/data/icons/user-interface-glyph-5/32/Clock-128.png" parent="1" vertex="1">
          <mxGeometry x="252.13" y="160" width="73" height="73" as="geometry" />
        </mxCell>
        <mxCell id="CvozXVyJyX2lD8ZnYhm1-30" style="edgeStyle=orthogonalEdgeStyle;rounded=0;orthogonalLoop=1;jettySize=auto;html=1;entryX=0.5;entryY=0;entryDx=0;entryDy=0;" parent="1" source="CvozXVyJyX2lD8ZnYhm1-19" target="CvozXVyJyX2lD8ZnYhm1-28" edge="1">
          <mxGeometry relative="1" as="geometry" />
        </mxCell>
        <mxCell id="CvozXVyJyX2lD8ZnYhm1-19" value="Update margin requirements" style="rounded=1;whiteSpace=wrap;html=1;fillColor=#FFFFFF;" parent="1" vertex="1">
          <mxGeometry x="142.13" y="325" width="200" height="25" as="geometry" />
        </mxCell>
        <mxCell id="CvozXVyJyX2lD8ZnYhm1-27" value="" style="ellipse;html=1;shape=endState;fillColor=#000000;strokeColor=#ff0000;" parent="1" vertex="1">
          <mxGeometry x="227.13" y="590" width="30" height="30" as="geometry" />
        </mxCell>
        <mxCell id="CvozXVyJyX2lD8ZnYhm1-32" style="edgeStyle=orthogonalEdgeStyle;rounded=0;orthogonalLoop=1;jettySize=auto;html=1;entryX=0.5;entryY=0;entryDx=0;entryDy=0;" parent="1" source="CvozXVyJyX2lD8ZnYhm1-28" target="CvozXVyJyX2lD8ZnYhm1-31" edge="1">
          <mxGeometry relative="1" as="geometry" />
        </mxCell>
        <mxCell id="CvozXVyJyX2lD8ZnYhm1-28" value="Update account status" style="rounded=1;whiteSpace=wrap;html=1;fillColor=#FFFFFF;" parent="1" vertex="1">
          <mxGeometry x="142.13" y="390" width="200" height="25" as="geometry" />
        </mxCell>
        <mxCell id="CvozXVyJyX2lD8ZnYhm1-33" value="No" style="edgeStyle=orthogonalEdgeStyle;rounded=0;orthogonalLoop=1;jettySize=auto;html=1;entryX=0.5;entryY=0;entryDx=0;entryDy=0;" parent="1" source="CvozXVyJyX2lD8ZnYhm1-31" target="CvozXVyJyX2lD8ZnYhm1-27" edge="1">
          <mxGeometry relative="1" as="geometry" />
        </mxCell>
        <mxCell id="CvozXVyJyX2lD8ZnYhm1-35" value="Yes" style="edgeStyle=orthogonalEdgeStyle;rounded=0;orthogonalLoop=1;jettySize=auto;html=1;entryX=0;entryY=0.5;entryDx=0;entryDy=0;" parent="1" source="CvozXVyJyX2lD8ZnYhm1-31" target="CvozXVyJyX2lD8ZnYhm1-34" edge="1">
          <mxGeometry relative="1" as="geometry" />
        </mxCell>
        <mxCell id="CvozXVyJyX2lD8ZnYhm1-31" value="Margin &lt;br&gt;call?" style="rhombus;whiteSpace=wrap;html=1;" parent="1" vertex="1">
          <mxGeometry x="199.63" y="450" width="85" height="70" as="geometry" />
        </mxCell>
        <mxCell id="CvozXVyJyX2lD8ZnYhm1-36" style="edgeStyle=orthogonalEdgeStyle;rounded=0;orthogonalLoop=1;jettySize=auto;html=1;entryX=1;entryY=0.5;entryDx=0;entryDy=0;exitX=0.5;exitY=1;exitDx=0;exitDy=0;" parent="1" source="CvozXVyJyX2lD8ZnYhm1-34" target="CvozXVyJyX2lD8ZnYhm1-27" edge="1">
          <mxGeometry relative="1" as="geometry" />
        </mxCell>
        <mxCell id="CvozXVyJyX2lD8ZnYhm1-34" value="Send margin call notification" style="rounded=1;whiteSpace=wrap;html=1;fillColor=#FFFFFF;" parent="1" vertex="1">
          <mxGeometry x="370" y="472.5" width="200" height="25" as="geometry" />
        </mxCell>
      </root>
    </mxGraphModel>
  </diagram>
</mxfile>
